HIERARCHY
ROOT Hips
{
	OFFSET 0.000000 0.000000 0.000000 
	CHANNELS 6 Xposition Yposition Zposition Zrotation Yrotation Xrotation
	JOINT LeftUpLeg
	{
		OFFSET 1.363060 -1.794630 0.839290 
		CHANNELS 3 Zrotation Yrotation Xrotation
		JOINT LeftLeg
		{
			OFFSET 2.448110 -6.726130 0.000000 
			CHANNELS 3 Zrotation Yrotation Xrotation
			JOINT LeftFoot
			{
				OFFSET 2.562200 -7.039590 0.000000 
				CHANNELS 3 Zrotation Yrotation Xrotation
				JOINT LeftToeBase
				{
					OFFSET 0.157640 -0.433110 2.322550 
					CHANNELS 3 Zrotation Yrotation Xrotation
					End Site
					{
						OFFSET 0.000000 0.000000 0.000000 
					}
				}
			}
		}
	}
	JOINT RightUpLeg
	{
		OFFSET -1.305520 -1.794630 0.839290 
		CHANNELS 3 Zrotation Yrotation Xrotation
		JOINT RightLeg
		{
			OFFSET -2.542530 -6.985550 0.000000 
			CHANNELS 3 Zrotation Yrotation Xrotation
			JOINT RightFoot
			{
				OFFSET -2.568260 -7.056230 0.000000 
				CHANNELS 3 Zrotation Yrotation Xrotation
				JOINT RightToeBase
				{
					OFFSET -0.164730 -0.452590 2.363150 
					CHANNELS 3 Zrotation Yrotation Xrotation
					End Site
					{
						OFFSET 0.000000 0.000000 0.000000 
					}
				}
			}
		}
	}
	JOINT Spine
	{
		OFFSET 0.028270 2.035590 -0.193380 
		CHANNELS 3 Zrotation Yrotation Xrotation
		JOINT Spine1
		{
			OFFSET 0.056720 2.048850 -0.042750 
			CHANNELS 3 Zrotation Yrotation Xrotation
			JOINT Neck1
			{
				OFFSET -0.054170 1.746240 0.172020 
				CHANNELS 3 Zrotation Yrotation Xrotation
				JOINT Head
				{
					OFFSET 0.104070 1.761360 -0.123970 
					CHANNELS 3 Zrotation Yrotation Xrotation
					End Site
					{
						OFFSET 0.000000 0.000000 0.000000 
					}
				}
			}
			JOINT LeftArm
			{
				OFFSET 3.362410 1.200890 -0.311210 
				CHANNELS 3 Zrotation Yrotation Xrotation
				JOINT LeftForeArm
				{
					OFFSET 4.983000 -0.000000 -0.000000 
					CHANNELS 3 Zrotation Yrotation Xrotation
					JOINT LeftHand
					{
						OFFSET 3.483560 -0.000000 -0.000000 
						CHANNELS 3 Zrotation Yrotation Xrotation
						JOINT LeftHandIndex1
						{
							OFFSET 0.715260 -0.000000 -0.000000 
							CHANNELS 3 Zrotation Yrotation Xrotation
							End Site
							{
								OFFSET 0.000000 0.000000 0.000000 
							}
						}
					}
				}
			}
			JOINT RightArm
			{
				OFFSET -3.136600 1.374050 -0.404650 
				CHANNELS 3 Zrotation Yrotation Xrotation
				JOINT RightForeArm
				{
					OFFSET -5.241900 -0.000000 -0.000000 
					CHANNELS 3 Zrotation Yrotation Xrotation
					JOINT RightHand
					{
						OFFSET -3.444170 -0.000000 -0.000000 
						CHANNELS 3 Zrotation Yrotation Xrotation
						JOINT RightHandIndex1
						{
							OFFSET -0.622530 -0.000000 -0.000000 
							CHANNELS 3 Zrotation Yrotation Xrotation
							End Site
							{
								OFFSET 0.000000 0.000000 0.000000 
							}
						}
					}
				}
			}
		}
	}
}
MOTION
Frames: 6
Frame Time: 0.041667
2.101526 17.864525 6.097485 1.417095 -14.845230 -1.451722 -19.611935 -10.914425 -14.771536 1.943923 9.474460 32.393535 0.041370 1.376119 0.938623 0.256100 -3.256100 -8.992700 17.052906 18.578032 -17.229258 -3.637880 -10.835536 37.252396 -2.025917 6.113642 3.827325 -0.822100 -5.785000 16.162000 4.524492 -0.912636 12.138704 4.873220 -0.137828 -11.718103 -2.447893 4.681083 13.353379 -1.488200 2.026900 6.385800 -88.890571 14.073357 21.916694 35.213642 -43.281486 -14.819060 0.372790 -0.983286 -12.418471 -7.125000 0.000000 0.000000 68.297969 14.488603 19.013840 -123.948128 55.271545 -88.347940 -0.578999 0.983579 19.505438 7.125000 0.000000 0.000000 
2.093098 17.867234 6.052535 0.892717 -15.107578 -1.267968 -18.938315 -11.069468 -15.212245 1.973947 9.560263 32.524308 -0.087183 1.827538 1.061278 0.267400 -3.326800 -9.189800 17.696308 19.046314 -17.200377 -3.602302 -10.758173 37.084392 -1.952796 5.888832 4.035797 -0.766500 -5.590900 15.601900 4.718652 -0.640441 11.666496 4.662842 -0.000177 -12.610270 -2.510206 4.585189 13.512417 -1.508900 1.979700 6.367300 -88.828555 14.320012 22.515591 35.408403 -43.421630 -14.969926 0.378817 -0.980837 -12.277316 -7.125000 0.000000 0.000000 68.312900 15.418872 21.837705 -118.975426 56.648142 -84.206173 -0.604034 0.972189 20.314513 7.125000 0.000000 0.000000 
2.091292 17.875963 6.030963 1.238105 -15.255204 -1.134955 -19.299582 -11.314939 -15.489003 1.999559 9.601926 32.639118 -0.185198 2.149313 0.941985 0.205800 -2.920800 -8.058500 17.228430 18.874970 -17.542815 -3.546189 -10.720679 36.892902 -2.045422 6.271629 4.329157 -0.756600 -5.555200 15.499000 4.498205 -0.463689 11.356462 4.373556 0.080879 -12.930696 -2.439202 4.458377 13.716493 -1.478200 1.922300 6.370300 -88.745960 14.421288 23.043764 35.547289 -43.516734 -15.074270 0.390426 -0.977106 -11.752131 -7.125000 0.000000 0.000000 67.958781 15.272632 24.401278 -114.320441 57.681387 -80.290496 -0.588534 0.966993 21.835819 7.125000 0.000000 0.000000 
2.080756 17.888304 6.011297 1.386643 -15.480334 -1.052597 -19.418627 -11.564163 -15.656293 2.025843 9.643696 32.749968 -0.292079 2.514619 0.715491 0.115900 -2.195000 -6.045000 17.039853 18.890429 -17.731355 -3.504399 -10.681889 36.748365 -2.117752 6.604068 4.632030 -0.810700 -5.745800 16.048700 4.274570 -0.370651 11.458565 4.124153 0.107615 -12.790715 -2.228163 4.429708 14.037053 -1.405400 1.917200 6.543300 -88.451520 13.967524 23.633285 35.566578 -43.539089 -15.108473 0.386262 -0.964708 -12.076238 -7.125000 0.000000 0.000000 68.102259 16.346856 26.840230 -108.687944 58.652391 -75.484686 -0.574205 0.959895 23.380852 7.125000 0.000000 0.000000 
2.067211 17.892318 5.988722 1.536397 -15.538486 -1.049407 -19.530303 -11.843536 -15.624642 2.023611 9.638399 32.732373 -0.383788 2.817047 0.592862 0.041400 -1.312800 -3.610000 16.906398 18.927922 -17.837809 -3.483866 -10.665400 36.676020 -2.134071 6.685269 4.794628 -0.779500 -5.636900 15.734500 4.189269 -0.210709 11.389876 4.017381 0.184647 -12.930470 -1.968316 4.240373 14.311146 -1.313800 1.839600 6.611900 -88.422760 13.825927 24.217814 35.657426 -43.609376 -15.202617 0.369035 -0.958487 -12.429978 -7.125000 0.000000 0.000000 68.000774 17.131600 29.045515 -102.400047 59.411259 -70.059825 -0.556814 0.926495 25.122930 7.125000 0.000000 0.000000 
2.048950 17.890311 5.961230 1.453104 -15.444921 -0.905574 -19.371319 -12.106696 -15.711248 2.021141 9.644970 32.716705 -0.460485 3.076676 0.517102 0.022900 -0.976900 -2.685200 17.025215 18.993706 -18.020452 -3.466155 -10.645779 36.611902 -2.102183 6.587654 5.044332 -0.835300 -5.830200 16.292400 4.233337 -0.046809 11.330679 3.918837 0.256870 -12.991926 -1.880306 4.068486 14.513800 -1.294900 1.762200 6.688600 -88.369505 13.531174 24.938389 35.697079 -43.635175 -15.245921 0.359994 -0.959547 -12.466173 -7.125000 0.000000 0.000000 67.876312 18.058476 30.979365 -95.146997 59.900182 -63.743426 -0.545588 0.886138 26.812248 7.125000 0.000000 0.000000 
